<svg width="150" height="174" viewBox="0 0 150 174" fill="none" xmlns="http://www.w3.org/2000/svg">
<g clip-path="url(#clip0_259_2938)">
<path d="M4.49114 173.993C7.81163 167.608 14.2598 143.448 11.2178 130.673C8.17581 117.897 -3.42806 72.0873 0.992122 48.207C5.4123 24.3267 21.7791 9.31994 44.1157 2.94277C74.25 -5.66532 122.344 4.88677 133.126 30.9908C143.909 57.0949 131.741 72.0873 133.126 76.2551C134.512 80.4228 150.543 106.247 149.986 109.296C149.436 112.352 140.796 113.256 139.967 114.296C139.139 115.336 133.819 135.536 130.641 143.456C127.328 151.698 122.072 154.424 116.545 154.704C111.018 154.983 86.418 147.623 82.8191 153.176C79.2272 158.728 78.6702 171.224 78.6702 174H4.49114V173.993Z" fill="#E6E6E6"/>
<path d="M32.2842 108.883C29.6424 105.377 13.763 99.1466 9.06488 85.2423C4.36674 71.338 4.5024 45.4695 13.4846 30.861C23.3092 14.8944 46.9284 -0.217156 83.414 6.73859C119.9 13.6943 129.017 31.8382 131.502 50.4779C133.987 69.1176 127.354 73.2853 129.017 77.7404C130.674 82.1883 133.715 85.5297 133.994 88.3106C134.272 91.0914 124.876 103.056 126.811 106.11C128.746 109.171 131.788 106.663 131.788 106.663C131.788 106.663 132.902 115.587 132.337 119.087C131.781 122.586 125.419 135.664 125.697 137.885C125.976 140.112 127.082 147.901 120.171 148.735C113.259 149.569 104.97 148.455 95.295 145.121C85.6202 141.779 75.3243 134.558 70.6976 130.196C67.4703 127.149 65.264 122.026 64.5286 120.481C62.8578 116.974 60.1089 108.89 58.3525 108.984C56.596 109.077 54.1113 110.557 49.2347 110.931L43.7083 112.972C43.7083 112.972 36.6111 114.639 32.2842 108.89V108.883Z" fill="white"/>
<path d="M64.0998 120.943C64.8296 122.456 67.0189 127.503 70.2214 130.501C74.8127 134.799 85.0296 141.903 94.63 145.183C104.231 148.47 112.456 149.559 119.315 148.739C125.068 148.053 125.252 142.645 124.884 138.743C124.806 137.923 124.253 136.827 123.439 136.735C118.415 136.149 100.631 134.671 88.2392 125.411C78.6103 118.215 78.915 111.817 77.6326 107.809C76.3501 103.801 72.517 101.355 69.9522 104.162C65.2901 109.272 60.5572 101.405 59.4589 100.514C58.3607 99.6232 55.6896 99.6233 56.0297 102.705C56.3698 105.787 62.4418 117.501 64.0998 120.95V120.943Z" fill="white"/>
<path d="M36.0261 89.0132C31.5549 86.3499 21.9973 83.2702 17.7479 69.3793C14.965 60.2837 14.1137 37.1537 26.0536 29.7308C45.4407 17.692 69.8069 19.1708 84.7585 27.6921C99.7102 36.2133 110.42 52.3297 105.991 66.2278C101.563 80.1259 101.742 85.4956 97.4996 92.3514C94.1659 97.7283 59.6555 103.098 36.019 89.0132H36.0261Z" fill="white"/>
<path d="M97.7435 104.649C100.205 103.627 84.2745 99.5633 78.6197 100.038C72.9648 100.514 64.8131 101.308 64.1519 106.393C63.4838 111.479 64.792 123.082 72.6905 130.884C77.1567 135.302 90.267 135.636 90.9282 127.848C91.5893 120.061 93.9244 106.23 97.7435 104.642V104.649Z" fill="white"/>
<path d="M123.993 71.3531C124.151 68.9715 121.742 67.3007 119.606 68.29C114.26 70.7815 106.966 75.4347 106.143 81.429C105.025 89.5631 110.609 96.7445 117.312 92.9632C122.037 90.2959 123.524 78.234 123.993 71.3457V71.3531Z" fill="#E6E6E6"/>
<circle cx="119" cy="107" r="10" fill="url(#paint0_radial_259_2938)"/>
<circle cx="104" cy="141" r="10" fill="url(#paint1_radial_259_2938)"/>
<path d="M108 105.186C106.708 106.955 102.575 110.389 96.375 109.964C88.625 109.433 86.6875 105.186 82.1667 103.062C80.3723 102.219 77.8611 102.354 77 102" stroke="#E6E6E6" stroke-width="2" stroke-linecap="round"/>
<path fill-rule="evenodd" clip-rule="evenodd" d="M35.3233 79.2718C38.0017 77.3623 41.0775 76.8806 43.1537 77.0234C44.1467 77.0917 44.896 77.9477 44.8274 78.9353C44.7587 79.9229 43.898 80.6682 42.905 80.5999C41.508 80.5038 39.3021 80.8462 37.4234 82.1855C35.6242 83.4683 33.9478 85.7883 33.6902 90.0278C33.3405 95.783 34.0676 99.6426 35.801 102.409C37.5139 105.142 40.3959 107.101 45.0379 108.644C49.8862 110.256 53.0539 111.096 55.1422 111.341C57.2774 111.592 57.6805 111.153 57.7887 111.018C58.4095 110.244 59.5435 110.117 60.3216 110.735C61.0997 111.352 61.2273 112.48 60.6065 113.254C59.2775 114.91 57.1655 115.188 54.7198 114.901C52.2271 114.609 48.7478 113.657 43.8952 112.044C38.8361 110.362 35.0712 108.022 32.742 104.305C30.4333 100.621 29.7233 95.8811 30.0921 89.8115C30.4094 84.5913 32.5655 81.2379 35.3233 79.2718Z" fill="#E6E6E6"/>
<path d="M49.0918 93.2344C48.2383 95.0344 47.1174 98.8849 49.4613 99.8866C52.3912 101.139 55.3211 102.391 53.7109 104.301C52.1008 106.21 51.5157 107.692 48.1459 105.386C44.7761 103.08 41.1863 100.247 40.379 96.8712C39.5718 93.4955 42.8669 92.7388 45.282 89.8744C47.2141 87.5829 46.4273 85.89 45.7924 85.33" stroke="#E6E6E6" stroke-width="1.5" stroke-linecap="round"/>
<ellipse cx="115" cy="125" rx="7" ry="7" transform="rotate(90 115 125)" fill="url(#paint2_radial_259_2938)"/>
<path d="M132.5 128.5C132.5 128.5 125 129 112.5 125.5" stroke="#E6E6E6" stroke-width="2" stroke-linecap="round"/>
</g>
<defs>
<radialGradient id="paint0_radial_259_2938" cx="0" cy="0" r="1" gradientUnits="userSpaceOnUse" gradientTransform="translate(119 107) rotate(90) scale(10)">
<stop stop-color="#F36969"/>
<stop offset="1" stop-color="#F36969" stop-opacity="0"/>
</radialGradient>
<radialGradient id="paint1_radial_259_2938" cx="0" cy="0" r="1" gradientUnits="userSpaceOnUse" gradientTransform="translate(104 141) rotate(90) scale(10)">
<stop stop-color="#F36969"/>
<stop offset="1" stop-color="#F36969" stop-opacity="0"/>
</radialGradient>
<radialGradient id="paint2_radial_259_2938" cx="0" cy="0" r="1" gradientUnits="userSpaceOnUse" gradientTransform="translate(115 125) rotate(90) scale(7)">
<stop stop-color="#F36969"/>
<stop offset="1" stop-color="#F36969" stop-opacity="0"/>
</radialGradient>
<clipPath id="clip0_259_2938">
<rect width="150" height="174" fill="white"/>
</clipPath>
</defs>
</svg>
