<svg width="150" height="174" viewBox="0 0 150 174" fill="none" xmlns="http://www.w3.org/2000/svg">
<g clip-path="url(#clip0_259_2935)">
<path d="M77.2015 172.5H6.81248C8.42972 168.526 10.3487 162.003 11.7126 155.017C13.3658 146.549 14.2771 137.045 12.677 130.325C12.5127 129.635 12.3238 128.85 12.1141 127.979C10.3769 120.761 7.21119 107.607 4.78539 93.3523C2.0565 77.3168 0.310383 60.1316 2.46707 48.48C6.76661 25.2515 22.6427 10.6333 44.5275 4.38514L44.5277 4.38508C59.2836 0.169937 78.5535 0.63058 95.4714 5.39361C112.45 10.1737 126.612 19.1497 131.74 31.5635C137.003 44.3046 136.65 54.2714 135.18 61.5521C134.51 64.8692 133.608 67.6362 132.861 69.9266C132.783 70.1672 132.706 70.4026 132.631 70.6328C132.245 71.8232 131.9 72.9272 131.702 73.8783C131.512 74.7902 131.398 75.8117 131.703 76.7282C131.917 77.3734 132.371 78.3289 132.937 79.4309C133.517 80.5628 134.264 81.9415 135.111 83.473C136.086 85.2371 137.209 87.2305 138.378 89.3048C139.233 90.8215 140.112 92.3815 140.975 93.9267C143.03 97.605 145.009 101.221 146.438 104.1C147.153 105.542 147.715 106.769 148.078 107.711C148.261 108.184 148.38 108.553 148.446 108.823C148.479 108.956 148.491 109.038 148.496 109.077C148.445 109.21 148.246 109.514 147.543 109.928C146.794 110.369 145.769 110.761 144.628 111.122C143.917 111.347 143.25 111.534 142.606 111.715C142.188 111.833 141.78 111.948 141.376 112.068C140.899 112.21 140.432 112.36 140.042 112.52C139.847 112.601 139.639 112.696 139.446 112.811C139.268 112.916 139.009 113.091 138.794 113.361C138.589 113.619 138.448 113.957 138.374 114.136C138.273 114.382 138.161 114.687 138.041 115.032C137.802 115.725 137.507 116.651 137.174 117.736C136.662 119.401 136.046 121.482 135.376 123.748C135.171 124.44 134.961 125.149 134.747 125.869C132.909 132.065 130.806 139.017 129.249 142.897C127.675 146.814 125.688 149.302 123.545 150.849C121.406 152.394 119.004 153.077 116.469 153.205C115.3 153.265 112.926 152.902 109.715 152.326C108.93 152.185 108.103 152.033 107.248 151.875C104.716 151.41 101.93 150.898 99.1851 150.479C95.5208 149.921 91.8233 149.512 88.7806 149.612C87.2605 149.662 85.8286 149.84 84.6155 150.231C83.4102 150.618 82.2697 151.265 81.5604 152.36L81.5596 152.361C79.5692 155.438 78.5021 160.243 77.9124 164.419C77.4621 167.608 77.2694 170.597 77.2015 172.5ZM148.51 109.026L148.51 109.03L148.51 109.026Z" stroke="#E6E6E6" stroke-width="3"/>
<path d="M32.2842 108.883C29.6424 105.377 13.763 99.1466 9.06488 85.2423C4.36674 71.338 4.5024 45.4695 13.4846 30.861C23.3092 14.8944 46.9284 -0.217156 83.414 6.73859C119.9 13.6943 129.017 31.8382 131.502 50.4779C133.987 69.1176 127.354 73.2853 129.017 77.7404C130.674 82.1883 133.715 85.5297 133.994 88.3106C134.272 91.0914 124.876 103.056 126.811 106.11C128.746 109.171 131.788 106.663 131.788 106.663C131.788 106.663 132.902 115.587 132.337 119.087C131.781 122.586 125.419 135.664 125.697 137.885C125.976 140.112 127.082 147.901 120.171 148.735C113.259 149.569 104.97 148.455 95.295 145.121C85.6202 141.779 75.3243 134.558 70.6976 130.196C67.4703 127.149 65.264 122.026 64.5286 120.481C62.8578 116.974 60.1089 108.89 58.3525 108.984C56.596 109.077 54.1113 110.557 49.2347 110.931L43.7083 112.972C43.7083 112.972 36.6111 114.639 32.2842 108.89V108.883Z" fill="white"/>
<path d="M64.0998 120.943C64.8296 122.456 67.0189 127.503 70.2214 130.501C74.8127 134.799 85.0296 141.903 94.63 145.183C104.231 148.47 112.456 149.559 119.315 148.739C125.068 148.053 125.252 142.645 124.884 138.743C124.806 137.923 124.253 136.827 123.439 136.735C118.415 136.149 100.631 134.671 88.2392 125.411C78.6103 118.215 78.915 111.817 77.6326 107.809C76.3501 103.801 72.517 101.355 69.9522 104.162C65.2901 109.272 60.5572 101.405 59.4589 100.514C58.3607 99.6232 55.6896 99.6233 56.0297 102.705C56.3698 105.787 62.4418 117.501 64.0998 120.95V120.943Z" fill="white"/>
<path d="M36.0261 89.0132C31.5549 86.3499 21.9973 83.2702 17.7479 69.3793C14.965 60.2837 14.1137 37.1537 26.0536 29.7308C45.4407 17.692 69.8069 19.1708 84.7585 27.6921C99.7102 36.2133 110.42 52.3297 105.991 66.2278C101.563 80.1259 101.742 85.4956 97.4996 92.3514C94.1659 97.7283 59.6555 103.098 36.019 89.0132H36.0261Z" fill="white"/>
<path d="M97.7435 104.649C100.205 103.627 84.2745 99.5633 78.6197 100.038C72.9648 100.514 64.8131 101.308 64.1519 106.393C63.4838 111.479 64.792 123.082 72.6905 130.884C77.1567 135.302 90.267 135.636 90.9282 127.848C91.5893 120.061 93.9244 106.23 97.7435 104.642V104.649Z" fill="white"/>
<path d="M123.993 71.3531C124.151 68.9715 121.742 67.3007 119.606 68.29C114.26 70.7815 106.966 75.4347 106.143 81.429C105.025 89.5631 110.609 96.7445 117.312 92.9632C122.037 90.2959 123.524 78.234 123.993 71.3457V71.3531Z" fill="#E6E6E6"/>
<path d="M95.2997 118.004C94.6846 117.951 94.1594 118.445 94.0834 119.046C93.883 120.648 93.8553 123.613 96.2603 123.913C99.5776 124.334 100.448 123.239 100.884 120.421C101.319 117.603 100.752 118.465 95.2997 118.004Z" fill="white"/>
<path d="M102.41 119.009C101.8 118.93 101.259 119.39 101.156 119.974C100.882 121.536 100.697 124.444 103.068 124.851C106.338 125.416 107.249 124.379 107.825 121.635C108.401 118.891 107.791 119.705 102.41 119.002V119.009Z" fill="white"/>
<path d="M108.258 119.007C107.728 118.933 107.247 119.455 107.151 120.109C106.882 121.857 106.745 125.442 108.794 125.854C111.621 126.419 112.26 125.369 112.81 122.298C113.374 119.154 112.907 119.683 108.251 119.007H108.258Z" fill="white"/>
<path d="M113.257 120.006C112.577 119.94 112.247 120.454 112.151 121.108C111.882 122.857 111.745 126.442 113.793 126.854C116.618 127.419 117.258 126.369 117.808 123.297C118.371 120.153 117.931 120.461 113.25 120.006H113.257Z" fill="white"/>
<path d="M119.175 121.007C118.484 120.944 118.149 121.436 118.051 122.063C117.779 123.738 118.617 127.519 120.062 127.934C121.34 128.307 123.239 127.103 123.805 124.154C124.377 121.141 123.93 121.436 119.175 121V121.007Z" fill="white"/>
<path d="M125.265 121.007C124.584 120.944 124.254 121.433 124.157 122.055C123.889 123.718 123.669 127.527 126.139 127.883C130.33 128.498 130.337 126.619 130.887 123.69C131.452 120.7 129.945 121.433 125.265 121V121.007Z" fill="white"/>
<path d="M93.853 128.849C93.3007 128.701 92.9388 128.142 93.0086 127.543C93.1991 125.928 93.434 123.754 95.6562 124.023C98.7101 124.4 99.5863 125.557 98.6339 128.661C97.9292 130.963 97.4466 129.798 93.853 128.849Z" fill="white"/>
<path d="M99.9899 130.396C99.3719 130.332 98.9552 129.774 99.0038 129.196C99.1358 127.65 99.7052 124.852 102.136 125.006C105.489 125.211 106.121 126.405 105.982 129.132C105.844 131.859 105.455 130.955 99.9899 130.396Z" fill="white"/>
<path d="M106.826 132.542C106.299 132.475 105.957 131.84 106.004 131.175C106.141 129.395 106.826 125.864 108.894 126.004C111.749 126.189 112.132 127.378 111.968 130.525C111.803 133.739 111.468 133.103 106.826 132.542Z" fill="white"/>
<path d="M112.828 132.473C112.157 132.363 111.959 131.778 112.007 131.121C112.144 129.359 112.828 125.865 114.895 126.004C117.749 126.187 118.132 127.364 117.968 130.477C117.804 133.591 117.448 133.24 112.828 132.473Z" fill="white"/>
<path d="M117.831 132.5C117.158 132.395 116.959 131.833 117.007 131.2C117.144 129.507 118.84 126.057 120.317 126.001C121.628 125.952 123.153 127.582 122.988 130.575C122.823 133.568 122.466 133.231 117.831 132.493V132.5Z" fill="white"/>
<path d="M122.88 133.644C122.21 133.379 121.955 132.963 122.006 132.318C122.152 130.59 122.888 126.748 125.517 127.013C129.974 127.465 129.304 128.741 128.124 131.028C126.529 134.139 124.788 134.404 122.88 133.637V133.644Z" fill="white"/>
<path d="M108 105.186C106.708 106.955 102.575 110.389 96.375 109.964C88.625 109.433 86.6875 105.186 82.1667 103.062C80.3723 102.219 77.8611 102.354 77 102" stroke="#E6E6E6" stroke-width="2" stroke-linecap="round"/>
<path d="M132.5 128.5C132.5 128.5 125 129 112.5 125.5" stroke="#E6E6E6" stroke-width="2" stroke-linecap="round"/>
<path d="M10 91.5C14 99.5 26.6 114.8 45 112" stroke="#E6E6E6" stroke-width="2" stroke-linecap="round"/>
<path d="M59 110.5C60.8333 117.5 68.8 133.5 86 141.5" stroke="#E6E6E6" stroke-width="2" stroke-linecap="round"/>
<path fill-rule="evenodd" clip-rule="evenodd" d="M35.3233 79.2718C38.0017 77.3623 41.0775 76.8806 43.1537 77.0234C44.1467 77.0917 44.896 77.9477 44.8274 78.9353C44.7587 79.9229 43.898 80.6682 42.905 80.5999C41.508 80.5038 39.3021 80.8462 37.4234 82.1855C35.6242 83.4683 33.9478 85.7883 33.6902 90.0278C33.3405 95.783 34.0676 99.6426 35.801 102.409C37.5139 105.142 40.3959 107.101 45.0379 108.644C49.8862 110.256 53.0539 111.096 55.1422 111.341C57.2774 111.592 57.6805 111.153 57.7887 111.018C58.4095 110.244 59.5435 110.117 60.3216 110.735C61.0997 111.352 61.2273 112.48 60.6065 113.254C59.2775 114.91 57.1655 115.188 54.7198 114.901C52.2271 114.609 48.7478 113.657 43.8952 112.044C38.8361 110.362 35.0712 108.022 32.742 104.305C30.4333 100.621 29.7233 95.8811 30.0921 89.8115C30.4094 84.5913 32.5655 81.2379 35.3233 79.2718Z" fill="#E6E6E6"/>
<path d="M49.0918 93.2344C48.2383 95.0344 47.1174 98.8849 49.4613 99.8866C52.3912 101.139 55.3211 102.391 53.7109 104.301C52.1008 106.21 51.5157 107.692 48.1459 105.386C44.7761 103.08 41.1863 100.247 40.379 96.8712C39.5718 93.4955 42.8669 92.7388 45.282 89.8744C47.2141 87.5829 46.4273 85.89 45.7924 85.33" stroke="#E6E6E6" stroke-width="1.5" stroke-linecap="round"/>
<circle cx="61.0444" cy="100" r="13.2278" stroke="#505050" stroke-width="1.5"/>
<path d="M61.3333 83L61.3333 91.4889" stroke="#505050" stroke-width="1.5" stroke-linecap="round"/>
<path d="M61.3333 108.511L61.3333 117" stroke="#505050" stroke-width="1.5" stroke-linecap="round"/>
<path d="M77.3333 100.333L68.8444 100.333" stroke="#505050" stroke-width="1.5" stroke-linecap="round"/>
<path d="M52.489 100.333L44.0001 100.333" stroke="#505050" stroke-width="1.5" stroke-linecap="round"/>
</g>
<defs>
<clipPath id="clip0_259_2935">
<rect width="150" height="174" fill="white"/>
</clipPath>
</defs>
</svg>
