<svg width="150" height="174" viewBox="0 0 150 174" fill="none" xmlns="http://www.w3.org/2000/svg">
<g clip-path="url(#clip0_328_4673)">
<path d="M4.49114 173.993C7.81163 167.608 14.2598 143.448 11.2178 130.673C8.17581 117.897 -3.42806 72.0873 0.992122 48.207C5.4123 24.3267 21.7791 9.31994 44.1157 2.94277C74.25 -5.66532 122.344 4.88677 133.126 30.9908C143.909 57.0949 131.741 72.0873 133.126 76.2551C134.512 80.4228 150.543 106.247 149.986 109.296C149.436 112.352 140.796 113.256 139.967 114.296C139.139 115.336 133.819 135.536 130.641 143.456C127.328 151.698 122.072 154.424 116.545 154.704C111.018 154.983 86.418 147.623 82.8191 153.176C79.2272 158.728 78.6702 171.224 78.6702 174H4.49114V173.993Z" fill="#E6E6E6"/>
<path d="M32.2842 108.883C29.6424 105.377 13.763 99.1466 9.06488 85.2423C4.36674 71.338 4.5024 45.4695 13.4846 30.861C23.3092 14.8944 46.9284 -0.217156 83.414 6.73859C119.9 13.6943 129.017 31.8382 131.502 50.4779C133.987 69.1176 127.354 73.2853 129.017 77.7404C130.674 82.1883 133.715 85.5297 133.994 88.3106C134.272 91.0914 124.876 103.056 126.811 106.11C128.746 109.171 131.788 106.663 131.788 106.663C131.788 106.663 132.902 115.587 132.337 119.087C131.781 122.586 125.419 135.664 125.697 137.885C125.976 140.112 127.082 147.901 120.171 148.735C113.259 149.569 104.97 148.455 95.295 145.121C85.6202 141.779 75.3243 134.558 70.6976 130.196C67.4703 127.149 65.264 122.026 64.5286 120.481C62.8578 116.974 60.1089 108.89 58.3525 108.984C56.596 109.077 54.1113 110.557 49.2347 110.931L43.7083 112.972C43.7083 112.972 36.6111 114.639 32.2842 108.89V108.883Z" fill="white"/>
<path d="M123.993 71.3531C124.151 68.9715 121.742 67.3007 119.606 68.29C114.26 70.7815 106.966 75.4347 106.143 81.429C105.025 89.5631 110.609 96.7445 117.312 92.9632C122.037 90.2959 123.524 78.234 123.993 71.3457V71.3531Z" fill="#E6E6E6"/>
<path d="M95.2997 118.004C94.6846 117.951 94.1594 118.445 94.0834 119.046C93.883 120.648 93.8553 123.613 96.2603 123.913C99.5776 124.334 100.448 123.239 100.884 120.421C101.319 117.603 100.752 118.465 95.2997 118.004Z" fill="white"/>
<path d="M102.41 119.009C101.8 118.93 101.259 119.39 101.156 119.974C100.882 121.536 100.697 124.444 103.068 124.851C106.338 125.416 107.249 124.379 107.825 121.635C108.401 118.891 107.791 119.705 102.41 119.002V119.009Z" fill="white"/>
<path d="M108.258 119.007C107.728 118.933 107.247 119.455 107.151 120.109C106.882 121.857 106.745 125.442 108.794 125.854C111.621 126.419 112.26 125.369 112.81 122.298C113.374 119.154 112.907 119.683 108.251 119.007H108.258Z" fill="white"/>
<path d="M113.257 120.006C112.577 119.94 112.247 120.454 112.151 121.108C111.882 122.857 111.745 126.442 113.793 126.854C116.618 127.419 117.258 126.369 117.808 123.297C118.371 120.153 117.931 120.461 113.25 120.006H113.257Z" fill="white"/>
<path d="M119.175 121.007C118.484 120.944 118.149 121.436 118.051 122.063C117.779 123.738 118.617 127.519 120.062 127.934C121.34 128.307 123.239 127.103 123.805 124.154C124.377 121.141 123.93 121.436 119.175 121V121.007Z" fill="white"/>
<path d="M125.265 121.007C124.584 120.944 124.254 121.433 124.157 122.055C123.889 123.718 123.669 127.527 126.139 127.883C130.33 128.498 130.337 126.619 130.887 123.69C131.452 120.7 129.945 121.433 125.265 121V121.007Z" fill="white"/>
<path d="M93.853 128.849C93.3007 128.701 92.9388 128.142 93.0086 127.543C93.1991 125.928 93.434 123.754 95.6562 124.023C98.7101 124.4 99.5863 125.557 98.6339 128.661C97.9292 130.963 97.4466 129.798 93.853 128.849Z" fill="white"/>
<path d="M99.9899 130.396C99.3719 130.332 98.9552 129.774 99.0038 129.196C99.1358 127.65 99.7052 124.852 102.136 125.006C105.489 125.211 106.121 126.405 105.982 129.132C105.844 131.859 105.455 130.955 99.9899 130.396Z" fill="white"/>
<path d="M106.826 132.542C106.299 132.475 105.957 131.84 106.004 131.175C106.141 129.395 106.826 125.864 108.894 126.004C111.749 126.189 112.132 127.378 111.968 130.525C111.803 133.739 111.468 133.103 106.826 132.542Z" fill="white"/>
<path d="M112.828 132.473C112.157 132.363 111.959 131.778 112.007 131.121C112.144 129.359 112.828 125.865 114.895 126.004C117.749 126.187 118.132 127.364 117.968 130.477C117.804 133.591 117.448 133.24 112.828 132.473Z" fill="white"/>
<path d="M117.831 132.5C117.158 132.395 116.959 131.833 117.007 131.2C117.144 129.507 118.84 126.057 120.317 126.001C121.628 125.952 123.153 127.582 122.988 130.575C122.823 133.568 122.466 133.231 117.831 132.493V132.5Z" fill="white"/>
<path d="M122.88 133.644C122.21 133.379 121.955 132.963 122.006 132.318C122.152 130.59 122.888 126.748 125.517 127.013C129.974 127.465 129.304 128.741 128.124 131.028C126.529 134.139 124.788 134.404 122.88 133.637V133.644Z" fill="white"/>
<path d="M108 105.186C106.708 106.955 102.575 110.389 96.375 109.964C88.625 109.433 86.6875 105.186 82.1667 103.062C80.3723 102.219 77.8611 102.354 77 102" stroke="#E6E6E6" stroke-width="2" stroke-linecap="round"/>
<path d="M132.5 128.5C132.5 128.5 125 129 112.5 125.5" stroke="#E6E6E6" stroke-width="2" stroke-linecap="round"/>
<path fill-rule="evenodd" clip-rule="evenodd" d="M35.3233 79.2718C38.0017 77.3623 41.0775 76.8806 43.1537 77.0234C44.1467 77.0917 44.896 77.9477 44.8274 78.9353C44.7587 79.9229 43.898 80.6682 42.905 80.5999C41.508 80.5038 39.3021 80.8462 37.4234 82.1855C35.6242 83.4683 33.9478 85.7883 33.6902 90.0278C33.3405 95.783 34.0676 99.6426 35.801 102.409C37.5139 105.142 40.3959 107.101 45.0379 108.644C49.8862 110.256 53.0539 111.096 55.1422 111.341C57.2774 111.592 57.6805 111.153 57.7887 111.018C58.4095 110.244 59.5435 110.117 60.3216 110.735C61.0997 111.352 61.2273 112.48 60.6065 113.254C59.2775 114.91 57.1655 115.188 54.7198 114.901C52.2271 114.609 48.7478 113.657 43.8952 112.044C38.8361 110.362 35.0712 108.022 32.742 104.305C30.4333 100.621 29.7233 95.8811 30.0921 89.8115C30.4094 84.5913 32.5655 81.2379 35.3233 79.2718Z" fill="#E6E6E6"/>
<path d="M49.0918 93.2344C48.2383 95.0344 47.1174 98.8849 49.4613 99.8866C52.3912 101.139 55.3211 102.391 53.7109 104.301C52.1008 106.21 51.5157 107.692 48.1459 105.386C44.7761 103.08 41.1863 100.247 40.379 96.8712C39.5718 93.4955 42.8669 92.7388 45.282 89.8744C47.2141 87.5829 46.4273 85.89 45.7924 85.33" stroke="#E6E6E6" stroke-width="1.5" stroke-linecap="round"/>
<path opacity="0.8" d="M59.412 99.691C56.1476 98.3787 53.585 97.195 53 97C53 90.5 72.5 97 78.5 97C84.5 97 81 102.5 75 103.5C72.7159 103.881 69.2 103.102 65.6384 101.964C65.8947 104.344 65.2321 107.661 66 111.5C66.6 114.5 66.6325 118.684 66 119C64 120 59.588 109.309 59.5 104.5C59.2422 102.953 58.9844 101.007 59.412 99.691Z" fill="url(#paint0_radial_328_4673)"/>
<circle cx="61.5588" cy="99.5" r="17.75" stroke="#505050" stroke-width="1.5"/>
<path d="M61.9412 77L61.9412 88.2353" stroke="#505050" stroke-width="1.5" stroke-linecap="round"/>
<path d="M61.9412 110.765L61.9412 122" stroke="#505050" stroke-width="1.5" stroke-linecap="round"/>
<path d="M83.1177 99.9412L71.8824 99.9412" stroke="#505050" stroke-width="1.5" stroke-linecap="round"/>
<path d="M50.2354 99.9412L39.0001 99.9412" stroke="#505050" stroke-width="1.5" stroke-linecap="round"/>
</g>
<defs>
<radialGradient id="paint0_radial_328_4673" cx="0" cy="0" r="1" gradientUnits="userSpaceOnUse" gradientTransform="translate(65.5 102.5) rotate(51.009) scale(13.5093 15.4901)">
<stop stop-color="#F36969"/>
<stop offset="1" stop-color="#F36969" stop-opacity="0"/>
</radialGradient>
<clipPath id="clip0_328_4673">
<rect width="150" height="174" fill="white"/>
</clipPath>
</defs>
</svg>
